<svg width="152" height="36" viewBox="0 0 152 36" fill="none" xmlns="http://www.w3.org/2000/svg">
<path d="M25.0921 19.9073L19.4353 25.039V35.7497H16.2622V22.3864L26.4713 25.9017L25.0921 19.9073Z" fill="black"/>
<path d="M37.981 21.62L39.206 35.7497H36.0329L35.375 25.9017L30.956 25.039L30.829 27.6917C30.7444 29.4601 30.5752 30.9449 30.3213 32.1461C30.0844 33.3307 29.6698 34.2733 29.0775 34.974C28.5021 35.658 27.7067 36 26.6913 36C26.2175 36 25.6336 35.9082 24.9398 35.7247L23.431 30.3976C23.6679 30.4476 25.5321 33.1722 25.7013 33.1722C26.3444 33.1722 27.436 33.6727 27.7575 33.1722C28.079 32.655 27.6729 31.2953 27.7575 30.5946C27.859 29.8772 28.3581 28.5042 28.4258 27.1863L28.2398 22.3864L37.981 21.62Z" fill="black"/>
<path d="M53.1825 27.6917C53.1825 27.9086 53.848 29.1408 53.8142 29.5412L44.0157 30.0691C44.2018 31.0534 44.6841 31.8375 45.4626 32.4214C46.258 32.9887 47.2395 33.2723 48.4072 33.2723C49.8965 33.2723 51.3492 31.5622 52.3138 30.5946L52.9653 33.823C52.3561 34.5404 52.4095 35.0073 51.4788 35.3744C50.548 35.7414 49.4988 35.9249 48.3311 35.9249C46.8418 35.9249 45.5303 35.633 44.3965 35.0491C43.2626 34.4651 42.9504 33.7869 42.3243 32.7525C41.7151 31.7015 40.8426 30.386 40.8426 29.0681C40.8426 27.7668 40.7538 26.674 41.3461 25.6396C41.9553 24.5886 43.178 23.696 44.2441 23.1121C45.3103 22.5282 46.5118 22.2362 47.8488 22.2362C49.1688 22.2362 50.3449 22.5282 51.3772 23.1121C52.4265 23.6793 53.2388 24.4885 53.8142 25.5395C54.4065 26.5739 53.1825 26.3236 53.1825 27.6917ZM47.8488 24.7387C46.8334 24.7387 44.9549 24.4384 44.2441 25.039C43.5503 25.6229 44.1426 27.0077 43.9903 27.992L50.5765 27.6144C50.4411 26.6468 51.1319 26.2402 50.438 25.6396C49.7442 25.039 48.8811 24.7387 47.8488 24.7387Z" fill="black"/>
<path d="M64.6938 23.037C65.9799 23.037 67.1138 23.3123 68.0953 23.8628C69.0769 24.3967 68.9697 25.1475 69.5113 26.1151C70.0697 27.0827 70.349 28.1922 70.349 29.4434C70.349 30.7281 70.913 31.8709 70.3038 32.8719C69.6946 33.8562 68.8399 34.6236 67.7399 35.1742C66.6399 35.7247 65.3876 36 63.983 36C61.6307 36 59.8115 35.2326 58.5253 33.6977C57.2391 32.1628 56.5961 29.9523 56.5961 27.0661C56.5961 24.38 55.9237 21.9037 57.0914 20.3355C58.2591 18.7672 61.3007 18.0821 63.7038 17.5816L70.3799 16.0537L69.0355 21.1918L64.7445 20.2092C63.103 20.5429 61.8761 21.1101 61.0638 21.9109C60.2515 22.7117 58.483 26.8052 58.3476 28.2567C58.9568 27.5393 60.9876 24.0213 61.8507 23.6376C62.7138 23.2372 63.6615 23.037 64.6938 23.037ZM64.0592 33.4725C65.2269 33.4725 66.1661 33.1054 66.8769 32.3714C67.6045 31.6206 67.9684 30.6697 67.9684 29.5185C67.9684 28.3674 67.6045 27.4414 66.8769 26.7407C66.1661 26.04 65.2269 25.6897 64.0592 25.6897C62.8745 25.6897 61.9184 26.04 61.1907 26.7407C60.463 27.4414 60.0991 28.3674 60.0991 29.5185C60.0991 30.6863 59.8384 32.1378 60.5661 32.8719C61.3107 33.6059 62.8915 33.4725 64.0592 33.4725Z" fill="black"/>
<path d="M85.3477 30.2192H82.8854V35.5746H79.7123V22.2112H82.8854V27.6166H85.4239L89.4346 22.2112H92.8362L87.9116 28.6426L93.1662 35.5746H89.4346L85.3477 30.2192Z" fill="black"/>
<path d="M94.2619 22.2112H97.435V31.02L104.923 22.2112H107.817V35.5746H104.644V26.7657L97.1811 35.5746H94.2619V22.2112Z" fill="black"/>
<path d="M120.767 28.6176C122.443 29.1181 123.28 30.1858 123.28 31.8208C123.28 33.022 122.823 33.9479 121.91 34.5986C120.996 35.2492 119.642 35.5746 117.848 35.5746H110.943V22.2112H117.569C119.227 22.2112 120.522 22.5115 121.453 23.1121C122.383 23.7127 122.849 24.5635 122.849 25.6646C122.849 26.3487 122.663 26.9409 122.29 27.4414C121.935 27.9419 121.427 28.334 120.767 28.6176ZM113.964 27.7918H117.29C118.931 27.7918 119.752 27.2329 119.752 26.1151C119.752 25.0307 118.931 24.4885 117.29 24.4885H113.964V27.7918ZM117.594 33.2973C119.337 33.2973 120.209 32.7384 120.209 31.6206C120.209 31.0367 120.006 30.6029 119.6 30.3193C119.193 30.019 118.559 29.8689 117.696 29.8689H113.964V33.2973H117.594Z" fill="black"/>
<path d="M130.569 22.061C132.566 22.061 134.089 22.5365 135.139 23.4875C136.205 24.4217 136.738 25.8398 136.738 27.7417V35.5746H133.742V33.9479C133.353 34.5319 132.795 34.9823 132.067 35.2993C131.356 35.5996 130.493 35.7497 129.478 35.7497C128.462 35.7497 127.574 35.5829 126.812 35.2492C126.051 34.8989 125.459 34.4234 125.035 33.8228C124.629 33.2055 124.426 32.5132 124.426 31.7457C124.426 30.5445 124.875 29.5852 125.772 28.8679C126.685 28.1338 128.115 27.7667 130.062 27.7667H133.565V27.5666C133.565 26.6323 133.277 25.9149 132.702 25.4144C132.143 24.9139 131.305 24.6636 130.189 24.6636C129.427 24.6636 128.674 24.7804 127.929 25.014C127.202 25.2476 126.584 25.5729 126.076 25.99L124.832 23.7127C125.543 23.1788 126.398 22.7701 127.396 22.4865C128.395 22.2028 129.452 22.061 130.569 22.061ZM130.138 33.4725C130.933 33.4725 131.635 33.2973 132.245 32.9469C132.871 32.5799 133.311 32.0627 133.565 31.3954V29.8438H130.29C128.462 29.8438 127.549 30.4361 127.549 31.6206C127.549 32.1878 127.777 32.6383 128.234 32.972C128.691 33.3056 129.325 33.4725 130.138 33.4725Z" fill="black"/>
<path d="M0.906842 13.4927L2.40583 4.54962H3.64229L3.46868 5.60399H3.57454C3.67052 5.46849 3.80037 5.31182 3.9641 5.13397C4.13066 4.95612 4.34944 4.80086 4.62044 4.66818C4.89145 4.53268 5.22879 4.46493 5.63247 4.46493C6.15754 4.46493 6.60216 4.59761 6.96632 4.86297C7.33048 5.12832 7.59019 5.51084 7.74546 6.0105C7.90072 6.51016 7.92048 7.11145 7.80474 7.81437C7.689 8.51728 7.47163 9.11999 7.15263 9.62247C6.83364 10.1221 6.4469 10.5075 5.9924 10.7785C5.54073 11.0467 5.05094 11.1807 4.52305 11.1807C4.12784 11.1807 3.8159 11.1144 3.58724 10.9817C3.3614 10.849 3.19344 10.6938 3.08334 10.5159C2.97325 10.3381 2.88997 10.18 2.83351 10.0417H2.75729L2.18141 13.4927H0.906842ZM3.10451 7.80166C3.03112 8.25898 3.03112 8.65984 3.10451 9.00424C3.17791 9.34864 3.3247 9.61824 3.5449 9.81302C3.76791 10.005 4.0615 10.101 4.42566 10.101C4.80393 10.101 5.13563 10.0007 5.42075 9.80032C5.70587 9.59707 5.94159 9.32183 6.1279 8.9746C6.31704 8.62738 6.44831 8.2364 6.5217 7.80166C6.59228 7.37258 6.59087 6.98724 6.51747 6.64566C6.4469 6.30409 6.30151 6.03449 6.08132 5.83689C5.86113 5.63928 5.56049 5.54048 5.17939 5.54048C4.80958 5.54048 4.48212 5.63505 4.197 5.82418C3.9147 6.01332 3.6804 6.27727 3.49408 6.61602C3.30777 6.95478 3.17791 7.34999 3.10451 7.80166ZM10.5561 11.1977C10.1439 11.1977 9.78398 11.1215 9.47628 10.969C9.16858 10.8138 8.94133 10.5893 8.79454 10.2957C8.64774 10.0022 8.60963 9.64223 8.68021 9.21597C8.74231 8.84898 8.8637 8.54693 9.04437 8.3098C9.22786 8.07267 9.45087 7.88494 9.71341 7.74662C9.97594 7.60547 10.2611 7.49961 10.5688 7.42903C10.8765 7.35846 11.187 7.30624 11.5003 7.27236C11.8956 7.22719 12.216 7.18908 12.4616 7.15803C12.71 7.12698 12.8963 7.07899 13.0205 7.01406C13.1447 6.94631 13.2195 6.83621 13.2449 6.68377V6.65413C13.3042 6.28715 13.2506 6.00203 13.084 5.79878C12.9203 5.5927 12.6352 5.48966 12.2287 5.48966C11.8052 5.48966 11.4495 5.58282 11.1616 5.76914C10.8765 5.95545 10.6662 6.16435 10.5307 6.39583L9.39583 6.12483C9.59908 5.72961 9.85738 5.41062 10.1707 5.16785C10.4869 4.92225 10.8327 4.7444 11.2082 4.63431C11.5836 4.52139 11.9675 4.46493 12.3599 4.46493C12.6196 4.46493 12.8892 4.49598 13.1687 4.55809C13.4482 4.61737 13.7022 4.72746 13.9309 4.88837C14.1624 5.04928 14.3346 5.27935 14.4475 5.57859C14.5604 5.875 14.5774 6.26033 14.4983 6.73459L13.7827 11.0537H12.5462L12.6987 10.1645H12.6479C12.5406 10.3282 12.391 10.4891 12.199 10.6472C12.0099 10.8053 11.7784 10.9366 11.5046 11.041C11.2307 11.1455 10.9146 11.1977 10.5561 11.1977ZM10.988 10.1814C11.3408 10.1814 11.6528 10.1123 11.9238 9.97393C12.1976 9.83561 12.4192 9.65494 12.5886 9.43192C12.758 9.20609 12.8638 8.96472 12.9062 8.70783L13.0459 7.86942C12.9923 7.91458 12.8977 7.95552 12.7622 7.99221C12.6295 8.02891 12.4799 8.06138 12.3134 8.08961C12.1468 8.11784 11.9831 8.14183 11.8222 8.16159C11.6641 8.18135 11.5328 8.1997 11.4284 8.21664C11.1799 8.24769 10.947 8.29992 10.7297 8.37331C10.5151 8.44671 10.3359 8.55257 10.1919 8.6909C10.0479 8.8264 9.9576 9.00707 9.9209 9.2329C9.87008 9.54625 9.94489 9.78338 10.1453 9.94429C10.3486 10.1024 10.6295 10.1814 10.988 10.1814ZM15.3759 9.33453H16.6674C16.6392 9.59989 16.7253 9.80455 16.9257 9.94852C17.1261 10.0925 17.4056 10.1645 17.7641 10.1645C18.1283 10.1645 18.4515 10.0868 18.7338 9.93159C19.0161 9.7735 19.1841 9.52931 19.2377 9.19903C19.2716 9.00142 19.2518 8.82922 19.1784 8.68243C19.1079 8.53281 18.9907 8.41707 18.827 8.3352C18.6632 8.25334 18.4628 8.2124 18.2257 8.2124H17.1671L17.3365 7.21731H18.3951C18.7479 7.21731 19.0274 7.13686 19.2335 6.97595C19.4396 6.81222 19.5624 6.60614 19.6019 6.35772C19.6442 6.09236 19.5835 5.87923 19.4198 5.71832C19.2589 5.55459 19.0062 5.47273 18.6618 5.47273C18.3203 5.47273 18.0224 5.55036 17.7684 5.70562C17.5143 5.85806 17.3604 6.05567 17.3068 6.29844H16.0238C16.0972 5.93428 16.2623 5.61528 16.5192 5.34146C16.7789 5.06481 17.1036 4.85026 17.4931 4.69782C17.8827 4.54256 18.309 4.46493 18.7719 4.46493C19.2547 4.46493 19.6597 4.54256 19.9872 4.69782C20.3147 4.85309 20.5518 5.06763 20.6986 5.34146C20.8482 5.61528 20.892 5.93004 20.8299 6.28574C20.7706 6.64425 20.6153 6.93784 20.3641 7.1665C20.1128 7.39234 19.8108 7.55466 19.4579 7.65346L19.441 7.72121C19.6894 7.73815 19.8997 7.81437 20.0719 7.94987C20.2441 8.08537 20.3669 8.26463 20.4403 8.48764C20.5137 8.71066 20.5264 8.96331 20.4784 9.24561C20.4135 9.64364 20.2469 9.98804 19.9787 10.2788C19.7134 10.5696 19.3746 10.794 18.9625 10.9521C18.5531 11.1073 18.1001 11.185 17.6032 11.185C17.1233 11.185 16.7069 11.1102 16.3541 10.9606C16.0012 10.8081 15.7372 10.5936 15.5622 10.3169C15.3872 10.0403 15.3251 9.71281 15.3759 9.33453ZM21.0871 13.4927L22.5861 4.54962H23.8225L23.6489 5.60399H23.7548C23.8508 5.46849 23.9806 5.31182 24.1444 5.13397C24.3109 4.95612 24.5297 4.80086 24.8007 4.66818C25.0717 4.53268 25.409 4.46493 25.8127 4.46493C26.3378 4.46493 26.7824 4.59761 27.1466 4.86297C27.5107 5.12832 27.7705 5.51084 27.9257 6.0105C28.081 6.51016 28.1007 7.11145 27.985 7.81437C27.8693 8.51728 27.6519 9.11999 27.3329 9.62247C27.0139 10.1221 26.6272 10.5075 26.1727 10.7785C25.721 11.0467 25.2312 11.1807 24.7033 11.1807C24.3081 11.1807 23.9962 11.1144 23.7675 10.9817C23.5417 10.849 23.3737 10.6938 23.2636 10.5159C23.1535 10.3381 23.0702 10.18 23.0138 10.0417H22.9376L22.3617 13.4927H21.0871ZM23.2848 7.80166C23.2114 8.25898 23.2114 8.65984 23.2848 9.00424C23.3582 9.34864 23.505 9.61824 23.7252 9.81302C23.9482 10.005 24.2418 10.101 24.6059 10.101C24.9842 10.101 25.3159 10.0007 25.601 9.80032C25.8861 9.59707 26.1218 9.32183 26.3082 8.9746C26.4973 8.62738 26.6286 8.2364 26.702 7.80166C26.7725 7.37258 26.7711 6.98724 26.6977 6.64566C26.6272 6.30409 26.4818 6.03449 26.2616 5.83689C26.0414 5.63928 25.7407 5.54048 25.3596 5.54048C24.9898 5.54048 24.6624 5.63505 24.3773 5.82418C24.095 6.01332 23.8607 6.27727 23.6743 6.61602C23.488 6.95478 23.3582 7.34999 23.2848 7.80166ZM30.7363 11.1977C30.3242 11.1977 29.9642 11.1215 29.6565 10.969C29.3488 10.8138 29.1216 10.5893 28.9748 10.2957C28.828 10.0022 28.7899 9.64223 28.8605 9.21597C28.9226 8.84898 29.044 8.54693 29.2246 8.3098C29.4081 8.07267 29.6311 7.88494 29.8937 7.74662C30.1562 7.60547 30.4413 7.49961 30.749 7.42903C31.0567 7.35846 31.3673 7.30624 31.6806 7.27236C32.0758 7.22719 32.3962 7.18908 32.6418 7.15803C32.8902 7.12698 33.0766 7.07899 33.2008 7.01406C33.325 6.94631 33.3998 6.83621 33.4252 6.68377V6.65413C33.4845 6.28715 33.4308 6.00203 33.2643 5.79878C33.1005 5.5927 32.8154 5.48966 32.4089 5.48966C31.9855 5.48966 31.6298 5.58282 31.3418 5.76914C31.0567 5.95545 30.8464 6.16435 30.7109 6.39583L29.5761 6.12483C29.7793 5.72961 30.0376 5.41062 30.351 5.16785C30.6672 4.92225 31.013 4.7444 31.3884 4.63431C31.7639 4.52139 32.1478 4.46493 32.5402 4.46493C32.7999 4.46493 33.0695 4.49598 33.349 4.55809C33.6284 4.61737 33.8825 4.72746 34.1112 4.88837C34.3426 5.04928 34.5148 5.27935 34.6278 5.57859C34.7407 5.875 34.7576 6.26033 34.6786 6.73459L33.963 11.0537H32.7265L32.8789 10.1645H32.8281C32.7209 10.3282 32.5712 10.4891 32.3793 10.6472C32.1901 10.8053 31.9587 10.9366 31.6848 11.041C31.411 11.1455 31.0948 11.1977 30.7363 11.1977ZM31.1682 10.1814C31.5211 10.1814 31.833 10.1123 32.104 9.97393C32.3779 9.83561 32.5995 9.65494 32.7689 9.43192C32.9382 9.20609 33.0441 8.96472 33.0864 8.70783L33.2262 7.86942C33.1725 7.91458 33.078 7.95552 32.9425 7.99221C32.8098 8.02891 32.6602 8.06138 32.4936 8.08961C32.3271 8.11784 32.1633 8.14183 32.0024 8.16159C31.8443 8.18135 31.7131 8.1997 31.6086 8.21664C31.3602 8.24769 31.1273 8.29992 30.9099 8.37331C30.6954 8.44671 30.5161 8.55257 30.3722 8.6909C30.2282 8.8264 30.1379 9.00707 30.1012 9.2329C30.0503 9.54625 30.1252 9.78338 30.3256 9.94429C30.5288 10.1024 30.8097 10.1814 31.1682 10.1814ZM42.1661 2.12752L42.5557 2.92783C42.3355 3.10568 42.0955 3.23271 41.8358 3.30893C41.5761 3.38233 41.2839 3.4289 40.9593 3.44866C40.6375 3.4656 40.2691 3.48113 39.8541 3.49524C39.3799 3.50936 38.9748 3.61098 38.6388 3.80012C38.3057 3.98644 38.0277 4.26309 37.8047 4.63007C37.5845 4.99423 37.4038 5.45155 37.2626 6.00203H37.3431C37.6226 5.59835 37.967 5.29629 38.3763 5.09586C38.7856 4.89543 39.2288 4.79522 39.7059 4.79522C40.2282 4.79522 40.6728 4.91519 41.0398 5.15514C41.4096 5.39509 41.6735 5.74655 41.8316 6.20952C41.9925 6.66966 42.0179 7.23284 41.9078 7.89906C41.7949 8.57374 41.5747 9.15668 41.2472 9.64788C40.9198 10.1391 40.5105 10.5188 40.0193 10.7869C39.5281 11.0523 38.9804 11.185 38.3763 11.185C37.7694 11.185 37.2626 11.0481 36.8561 10.7742C36.4525 10.4976 36.1702 10.0883 36.0093 9.54625C35.8483 9.00424 35.8328 8.3352 35.9627 7.53913L36.0728 6.8955C36.3212 5.4078 36.7729 4.28849 37.4278 3.53759C38.0855 2.78668 38.9451 2.40135 40.0066 2.38159C40.3453 2.37312 40.6488 2.37171 40.917 2.37735C41.1851 2.38018 41.4223 2.36747 41.6283 2.33924C41.8344 2.30819 42.0137 2.23762 42.1661 2.12752ZM38.5457 10.1221C38.9014 10.1221 39.2218 10.0332 39.5069 9.85537C39.7948 9.6747 40.0348 9.41922 40.2267 9.08893C40.4187 8.75865 40.5528 8.36908 40.629 7.92023C40.6996 7.47985 40.6911 7.10581 40.6036 6.7981C40.5161 6.4904 40.3566 6.2561 40.1251 6.09519C39.8936 5.93146 39.6001 5.84959 39.2444 5.84959C38.9818 5.84959 38.7376 5.89617 38.5118 5.98933C38.286 6.07966 38.0841 6.21375 37.9063 6.3916C37.7284 6.56944 37.5788 6.78681 37.4574 7.0437C37.336 7.29777 37.2457 7.58994 37.1864 7.92023C37.0735 8.59209 37.1384 9.12704 37.3812 9.52508C37.624 9.92312 38.0121 10.1221 38.5457 10.1221ZM45.5918 11.185C44.9736 11.185 44.4569 11.0438 44.042 10.7615C43.627 10.4764 43.3348 10.0784 43.1654 9.56742C42.9989 9.05365 42.9707 8.45659 43.0808 7.77626C43.188 7.11004 43.404 6.52851 43.7286 6.03167C44.0561 5.53483 44.4654 5.1495 44.9566 4.87567C45.4506 4.60184 45.9997 4.46493 46.6038 4.46493C47.222 4.46493 47.7372 4.60749 48.1494 4.89261C48.5644 5.17773 48.8565 5.57717 49.0259 6.09095C49.1953 6.60473 49.2249 7.2032 49.1148 7.88635C49.0076 8.54693 48.7888 9.12563 48.4585 9.62247C48.131 10.1165 47.7217 10.5004 47.2305 10.7742C46.7393 11.0481 46.1931 11.185 45.5918 11.185ZM45.6638 10.1221C46.0703 10.1221 46.4246 10.0149 46.7266 9.80032C47.0315 9.58577 47.2799 9.30065 47.4719 8.94496C47.6638 8.58927 47.7951 8.1997 47.8657 7.77626C47.9306 7.36693 47.9292 6.99289 47.8614 6.65413C47.7965 6.31255 47.6554 6.03873 47.438 5.83265C47.2206 5.62658 46.9186 5.52354 46.5318 5.52354C46.1253 5.52354 45.7682 5.63222 45.4605 5.84959C45.1556 6.06413 44.9072 6.35066 44.7153 6.70918C44.5261 7.0677 44.3977 7.45868 44.3299 7.88212C44.265 8.28862 44.265 8.66267 44.3299 9.00424C44.3948 9.343 44.536 9.614 44.7534 9.81726C44.9707 10.0205 45.2742 10.1221 45.6638 10.1221ZM50.13 5.6421L50.3079 4.54962H55.7957L55.6179 5.6421H53.4964L52.6072 11.0537H51.3665L52.2557 5.6421H50.13ZM57.6239 11.1977C57.2118 11.1977 56.8518 11.1215 56.5441 10.969C56.2364 10.8138 56.0092 10.5893 55.8624 10.2957C55.7156 10.0022 55.6775 9.64223 55.7481 9.21597C55.8102 8.84898 55.9316 8.54693 56.1122 8.3098C56.2957 8.07267 56.5187 7.88494 56.7813 7.74662C57.0438 7.60547 57.3289 7.49961 57.6366 7.42903C57.9443 7.35846 58.2549 7.30624 58.5682 7.27236C58.9634 7.22719 59.2838 7.18908 59.5294 7.15803C59.7778 7.12698 59.9642 7.07899 60.0884 7.01406C60.2126 6.94631 60.2874 6.83621 60.3128 6.68377V6.65413C60.3721 6.28715 60.3184 6.00203 60.1519 5.79878C59.9882 5.5927 59.703 5.48966 59.2965 5.48966C58.8731 5.48966 58.5174 5.58282 58.2295 5.76914C57.9443 5.95545 57.734 6.16435 57.5985 6.39583L56.4637 6.12483C56.6669 5.72961 56.9252 5.41062 57.2386 5.16785C57.5548 4.92225 57.9006 4.7444 58.276 4.63431C58.6515 4.52139 59.0354 4.46493 59.4278 4.46493C59.6875 4.46493 59.9571 4.49598 60.2366 4.55809C60.516 4.61737 60.7701 4.72746 60.9988 4.88837C61.2303 5.04928 61.4025 5.27935 61.5154 5.57859C61.6283 5.875 61.6452 6.26033 61.5662 6.73459L60.8506 11.0537H59.6141L59.7666 10.1645H59.7157C59.6085 10.3282 59.4588 10.4891 59.2669 10.6472C59.0777 10.8053 58.8463 10.9366 58.5724 11.041C58.2986 11.1455 57.9824 11.1977 57.6239 11.1977ZM58.0558 10.1814C58.4087 10.1814 58.7206 10.1123 58.9916 9.97393C59.2655 9.83561 59.4871 9.65494 59.6565 9.43192C59.8258 9.20609 59.9317 8.96472 59.974 8.70783L60.1138 7.86942C60.0601 7.91458 59.9656 7.95552 59.8301 7.99221C59.6974 8.02891 59.5478 8.06138 59.3812 8.08961C59.2147 8.11784 59.0509 8.14183 58.89 8.16159C58.7319 8.18135 58.6007 8.1997 58.4962 8.21664C58.2478 8.24769 58.0149 8.29992 57.7975 8.37331C57.583 8.44671 57.4037 8.55257 57.2598 8.6909C57.1158 8.8264 57.0255 9.00707 56.9888 9.2329C56.9379 9.54625 57.0128 9.78338 57.2132 9.94429C57.4164 10.1024 57.6973 10.1814 58.0558 10.1814ZM62.0246 11.0537L62.2024 9.95699H62.4311C62.6117 9.95699 62.7698 9.91888 62.9053 9.84266C63.0437 9.76362 63.1679 9.63094 63.278 9.44463C63.3881 9.25831 63.4925 9.00142 63.5913 8.67396C63.6901 8.34367 63.7917 7.9287 63.8962 7.42903L64.4848 4.54962H69.0241L67.9401 11.0537H66.6994L67.6056 5.6421H65.4756L65.0056 7.85248C64.8927 8.38884 64.7614 8.85745 64.6118 9.25831C64.4622 9.65917 64.2858 9.99369 64.0825 10.2619C63.8792 10.5272 63.6421 10.7262 63.3711 10.8589C63.1001 10.9888 62.7868 11.0537 62.4311 11.0537H62.0246ZM74.3298 9.27948L77.9799 4.54962H79.3434L78.2594 11.0537H77.0187L77.8021 6.31961L74.1605 11.0537H72.7885L73.8725 4.54962H75.109L74.3298 9.27948ZM83.0199 9.33453H84.3115C84.2832 9.59989 84.3693 9.80455 84.5698 9.94852C84.7702 10.0925 85.0497 10.1645 85.4082 10.1645C85.7723 10.1645 86.0956 10.0868 86.3779 9.93159C86.6602 9.7735 86.8281 9.52931 86.8818 9.19903C86.9156 9.00142 86.8959 8.82922 86.8225 8.68243C86.7519 8.53281 86.6347 8.41707 86.471 8.3352C86.3073 8.25334 86.1069 8.2124 85.8697 8.2124H84.8111L84.9805 7.21731H86.0391C86.392 7.21731 86.6714 7.13686 86.8775 6.97595C87.0836 6.81222 87.2064 6.60614 87.2459 6.35772C87.2883 6.09236 87.2276 5.87923 87.0638 5.71832C86.9029 5.55459 86.6503 5.47273 86.3059 5.47273C85.9643 5.47273 85.6665 5.55036 85.4124 5.70562C85.1583 5.85806 85.0045 6.05567 84.9509 6.29844H83.6678C83.7412 5.93428 83.9064 5.61528 84.1632 5.34146C84.423 5.06481 84.7476 4.85026 85.1372 4.69782C85.5267 4.54256 85.953 4.46493 86.416 4.46493C86.8987 4.46493 87.3038 4.54256 87.6312 4.69782C87.9587 4.85309 88.1958 5.06763 88.3426 5.34146C88.4923 5.61528 88.536 5.93004 88.4739 6.28574C88.4146 6.64425 88.2594 6.93784 88.0081 7.1665C87.7569 7.39234 87.4548 7.55466 87.1019 7.65346L87.085 7.72121C87.3334 7.73815 87.5437 7.81437 87.7159 7.94987C87.8881 8.08537 88.0109 8.26463 88.0843 8.48764C88.1577 8.71066 88.1704 8.96331 88.1224 9.24561C88.0575 9.64364 87.891 9.98804 87.6228 10.2788C87.3574 10.5696 87.0187 10.794 86.6065 10.9521C86.1972 11.1073 85.7441 11.185 85.2473 11.185C84.7674 11.185 84.351 11.1102 83.9981 10.9606C83.6452 10.8081 83.3813 10.5936 83.2063 10.3169C83.0312 10.0403 82.9691 9.71281 83.0199 9.33453ZM91.0093 11.1977C90.5971 11.1977 90.2372 11.1215 89.9295 10.969C89.6218 10.8138 89.3945 10.5893 89.2477 10.2957C89.101 10.0022 89.0628 9.64223 89.1334 9.21597C89.1955 8.84898 89.3169 8.54693 89.4976 8.3098C89.6811 8.07267 89.9041 7.88494 90.1666 7.74662C90.4292 7.60547 90.7143 7.49961 91.022 7.42903C91.3297 7.35846 91.6402 7.30624 91.9536 7.27236C92.3488 7.22719 92.6692 7.18908 92.9148 7.15803C93.1632 7.12698 93.3495 7.07899 93.4737 7.01406C93.5979 6.94631 93.6727 6.83621 93.6981 6.68377V6.65413C93.7574 6.28715 93.7038 6.00203 93.5372 5.79878C93.3735 5.5927 93.0884 5.48966 92.6819 5.48966C92.2584 5.48966 91.9027 5.58282 91.6148 5.76914C91.3297 5.95545 91.1194 6.16435 90.9839 6.39583L89.849 6.12483C90.0523 5.72961 90.3106 5.41062 90.6239 5.16785C90.9401 4.92225 91.2859 4.7444 91.6614 4.63431C92.0368 4.52139 92.4207 4.46493 92.8131 4.46493C93.0729 4.46493 93.3424 4.49598 93.6219 4.55809C93.9014 4.61737 94.1555 4.72746 94.3841 4.88837C94.6156 5.04928 94.7878 5.27935 94.9007 5.57859C95.0136 5.875 95.0306 6.26033 94.9515 6.73459L94.2359 11.0537H92.9995L93.1519 10.1645H93.1011C92.9938 10.3282 92.8442 10.4891 92.6522 10.6472C92.4631 10.8053 92.2316 10.9366 91.9578 11.041C91.684 11.1455 91.3678 11.1977 91.0093 11.1977ZM91.4412 10.1814C91.7941 10.1814 92.106 10.1123 92.377 9.97393C92.6508 9.83561 92.8724 9.65494 93.0418 9.43192C93.2112 9.20609 93.317 8.96472 93.3594 8.70783L93.4991 7.86942C93.4455 7.91458 93.3509 7.95552 93.2154 7.99221C93.0827 8.02891 92.9331 8.06138 92.7666 8.08961C92.6 8.11784 92.4363 8.14183 92.2754 8.16159C92.1173 8.18135 91.986 8.1997 91.8816 8.21664C91.6331 8.24769 91.4003 8.29992 91.1829 8.37331C90.9683 8.44671 90.7891 8.55257 90.6451 8.6909C90.5011 8.8264 90.4108 9.00707 90.3741 9.2329C90.3233 9.54625 90.3981 9.78338 90.5985 9.94429C90.8018 10.1024 91.0827 10.1814 91.4412 10.1814ZM94.9822 12.9296L95.4861 9.95699H96.0112C96.1665 9.83278 96.3048 9.68458 96.4262 9.51238C96.5504 9.34018 96.6647 9.13551 96.7692 8.89838C96.8736 8.66126 96.9738 8.38461 97.0698 8.06843C97.1686 7.74944 97.2702 7.38528 97.3747 6.97595L97.976 4.54962H102.397L101.507 9.95699H102.511L102.007 12.9296H100.771L101.076 11.0537H96.5447L96.2356 12.9296H94.9822ZM97.3662 9.95699H100.275L100.987 5.63363H98.933L98.573 6.97595C98.398 7.65911 98.2187 8.25193 98.0353 8.75441C97.8546 9.25408 97.6316 9.65494 97.3662 9.95699ZM105.107 9.27948L108.757 4.54962H110.12L109.036 11.0537H107.796L108.579 6.31961L104.937 11.0537H103.565L104.649 4.54962H105.886L105.107 9.27948ZM110.641 9.33453H111.933C111.904 9.59989 111.991 9.80455 112.191 9.94852C112.391 10.0925 112.671 10.1645 113.029 10.1645C113.394 10.1645 113.717 10.0868 113.999 9.93159C114.281 9.7735 114.449 9.52931 114.503 9.19903C114.537 9.00142 114.517 8.82922 114.444 8.68243C114.373 8.53281 114.256 8.41707 114.092 8.3352C113.929 8.25334 113.728 8.2124 113.491 8.2124H112.432L112.602 7.21731H113.66C114.013 7.21731 114.293 7.13686 114.499 6.97595C114.705 6.81222 114.828 6.60614 114.867 6.35772C114.909 6.09236 114.849 5.87923 114.685 5.71832C114.524 5.55459 114.271 5.47273 113.927 5.47273C113.586 5.47273 113.288 5.55036 113.034 5.70562C112.78 5.85806 112.626 6.05567 112.572 6.29844H111.289C111.362 5.93428 111.528 5.61528 111.784 5.34146C112.044 5.06481 112.369 4.85026 112.758 4.69782C113.148 4.54256 113.574 4.46493 114.037 4.46493C114.52 4.46493 114.925 4.54256 115.252 4.69782C115.58 4.85309 115.817 5.06763 115.964 5.34146C116.113 5.61528 116.157 5.93004 116.095 6.28574C116.036 6.64425 115.881 6.93784 115.629 7.1665C115.378 7.39234 115.076 7.55466 114.723 7.65346L114.706 7.72121C114.955 7.73815 115.165 7.81437 115.337 7.94987C115.509 8.08537 115.632 8.26463 115.706 8.48764C115.779 8.71066 115.792 8.96331 115.744 9.24561C115.679 9.64364 115.512 9.98804 115.244 10.2788C114.979 10.5696 114.64 10.794 114.228 10.9521C113.818 11.1073 113.365 11.185 112.868 11.185C112.389 11.185 111.972 11.1102 111.619 10.9606C111.266 10.8081 111.003 10.5936 110.827 10.3169C110.652 10.0403 110.59 9.71281 110.641 9.33453ZM118.63 11.1977C118.218 11.1977 117.858 11.1215 117.551 10.969C117.243 10.8138 117.016 10.5893 116.869 10.2957C116.722 10.0022 116.684 9.64223 116.755 9.21597C116.817 8.84898 116.938 8.54693 117.119 8.3098C117.302 8.07267 117.525 7.88494 117.788 7.74662C118.05 7.60547 118.335 7.49961 118.643 7.42903C118.951 7.35846 119.261 7.30624 119.575 7.27236C119.97 7.22719 120.29 7.18908 120.536 7.15803C120.784 7.12698 120.971 7.07899 121.095 7.01406C121.219 6.94631 121.294 6.83621 121.319 6.68377V6.65413C121.379 6.28715 121.325 6.00203 121.158 5.79878C120.995 5.5927 120.71 5.48966 120.303 5.48966C119.88 5.48966 119.524 5.58282 119.236 5.76914C118.951 5.95545 118.741 6.16435 118.605 6.39583L117.47 6.12483C117.674 5.72961 117.932 5.41062 118.245 5.16785C118.561 4.92225 118.907 4.7444 119.283 4.63431C119.658 4.52139 120.042 4.46493 120.434 4.46493C120.694 4.46493 120.964 4.49598 121.243 4.55809C121.523 4.61737 121.777 4.72746 122.005 4.88837C122.237 5.04928 122.409 5.27935 122.522 5.57859C122.635 5.875 122.652 6.26033 122.573 6.73459L121.857 11.0537H120.621L120.773 10.1645H120.722C120.615 10.3282 120.465 10.4891 120.273 10.6472C120.084 10.8053 119.853 10.9366 119.579 11.041C119.305 11.1455 118.989 11.1977 118.63 11.1977ZM119.062 10.1814C119.415 10.1814 119.727 10.1123 119.998 9.97393C120.272 9.83561 120.494 9.65494 120.663 9.43192C120.832 9.20609 120.938 8.96472 120.981 8.70783L121.12 7.86942C121.067 7.91458 120.972 7.95552 120.837 7.99221C120.704 8.02891 120.554 8.06138 120.388 8.08961C120.221 8.11784 120.057 8.14183 119.897 8.16159C119.739 8.18135 119.607 8.1997 119.503 8.21664C119.254 8.24769 119.021 8.29992 118.804 8.37331C118.59 8.44671 118.41 8.55257 118.266 8.6909C118.122 8.8264 118.032 9.00707 117.995 9.2329C117.945 9.54625 118.019 9.78338 118.22 9.94429C118.423 10.1024 118.704 10.1814 119.062 10.1814ZM125.089 9.27948L128.739 4.54962H130.103L129.019 11.0537H127.778L128.561 6.31961L124.92 11.0537H123.548L124.632 4.54962H125.868L125.089 9.27948ZM128.553 2.34771H129.59C129.511 2.82479 129.278 3.21295 128.892 3.51218C128.505 3.80859 128.024 3.9568 127.448 3.9568C126.877 3.9568 126.45 3.80859 126.165 3.51218C125.879 3.21295 125.778 2.82479 125.86 2.34771H126.893C126.859 2.55943 126.89 2.74716 126.986 2.91089C127.085 3.0718 127.285 3.15225 127.587 3.15225C127.884 3.15225 128.11 3.0718 128.265 2.91089C128.42 2.74998 128.516 2.56226 128.553 2.34771ZM135.756 7.25542L135.578 8.35214H132.05L132.228 7.25542H135.756ZM133.041 4.54962L131.957 11.0537H130.721L131.805 4.54962H133.041ZM137.098 4.54962L136.014 11.0537H134.777L135.861 4.54962H137.098ZM139.249 9.27948L142.899 4.54962H144.263L143.179 11.0537H141.938L142.721 6.31961L139.08 11.0537H137.708L138.792 4.54962H140.028L139.249 9.27948ZM144.364 11.0537L144.542 9.95699H144.771C144.951 9.95699 145.109 9.91888 145.245 9.84266C145.383 9.76362 145.508 9.63094 145.618 9.44463C145.728 9.25831 145.832 9.00142 145.931 8.67396C146.03 8.34367 146.131 7.9287 146.236 7.42903L146.824 4.54962H151.364L150.28 11.0537H149.039L149.945 5.6421H147.815L147.345 7.85248C147.232 8.38884 147.101 8.85745 146.951 9.25831C146.802 9.65917 146.625 9.99369 146.422 10.2619C146.219 10.5272 145.982 10.7262 145.711 10.8589C145.44 10.9888 145.126 11.0537 144.771 11.0537H144.364Z" fill="black" fill-opacity="0.4"/>
</svg>
