<?xml version="1.0" standalone="no"?><!DOCTYPE svg PUBLIC "-//W3C//DTD SVG 1.1//EN" "http://www.w3.org/Graphics/SVG/1.1/DTD/svg11.dtd"><svg xmlns:xlink="http://www.w3.org/1999/xlink" version="1.1" class="highcharts-root" style="font-family:Roboto;font-size:12px;" xmlns="http://www.w3.org/2000/svg" width="650" height="400" viewBox="0 0 650 400"><desc>Created with Highcharts 9.1.0</desc><defs><clipPath id="highcharts-6tli4cb-149-"><rect x="0" y="0" width="630" height="375" fill="none"></rect></clipPath></defs><rect fill="#ffffff" class="highcharts-background" x="0" y="0" width="650" height="400" rx="0" ry="0"></rect><rect fill="none" class="highcharts-plot-background" x="10" y="10" width="630" height="375"></rect><g class="highcharts-pane-group" data-z-index="0"></g><rect fill="none" class="highcharts-plot-border" data-z-index="1" x="10" y="10" width="630" height="375"></rect><g class="highcharts-series-group" data-z-index="3"><g class="highcharts-series highcharts-series-0 highcharts-pie-series" data-z-index="0.1" opacity="1" transform="translate(10,10) scale(1 1)"><path fill="#6a329f" d="M 314.9706710586679 43.50000298675974 A 144 144 0 0 1 377.34914713407767 57.69790505676292 L 315 187.5 A 0 0 0 0 0 315 187.5 Z" transform="translate(0,0)" stroke="#ffffff" stroke-width="1" opacity="1" stroke-linejoin="round" class="highcharts-point highcharts-color-0"></path><path fill="#c90076" d="M 377.47891803281624 57.760319094547526 A 144 144 0 0 1 450.1706456080606 237.1477246799899 L 315 187.5 A 0 0 0 0 0 315 187.5 Z" transform="translate(0,0)" stroke="#ffffff" stroke-width="1" opacity="1" stroke-linejoin="round" class="highcharts-point highcharts-color-1"></path><path fill="#d5a6bd" d="M 450.1209303063381 237.28287047920924 A 144 144 0 0 1 278.6482813700175 326.836113598186 L 315 187.5 A 0 0 0 0 0 315 187.5 Z" transform="translate(0,0)" stroke="#ffffff" stroke-width="1" opacity="1" stroke-linejoin="round" class="highcharts-point highcharts-color-2"></path><path fill="#7abfff" d="M 278.50896345549984 326.7996922175636 A 144 144 0 0 1 252.44420225655108 57.797370232208834 L 315 187.5 A 0 0 0 0 0 315 187.5 Z" transform="translate(0,0)" stroke="#ffffff" stroke-width="1" opacity="1" stroke-linejoin="round" class="highcharts-point highcharts-color-3"></path><path fill="#16537e" d="M 252.5739361425981 57.7348792962008 A 144 144 0 0 1 314.7999868889177 43.5001389071663 L 315 187.5 A 0 0 0 0 0 315 187.5 Z" transform="translate(0,0)" stroke="#ffffff" stroke-width="1" opacity="1" stroke-linejoin="round" class="highcharts-point highcharts-color-4"></path></g><g class="highcharts-markers highcharts-series-0 highcharts-pie-series" data-z-index="0.1" opacity="1" transform="translate(10,10) scale(1 1)"></g></g><text x="325" text-anchor="middle" class="highcharts-title" data-z-index="4" style="color:#333333;font-size:18px;fill:#333333;" y="24"></text><text x="325" text-anchor="middle" class="highcharts-subtitle" data-z-index="4" style="color:#666666;fill:#666666;" y="24"></text><text x="10" text-anchor="start" class="highcharts-caption" data-z-index="4" style="color:#666666;fill:#666666;" y="397"></text><g class="highcharts-data-labels highcharts-series-0 highcharts-pie-series" data-z-index="6" opacity="1" transform="translate(10,10) scale(1 1)"><path fill="none" class="highcharts-data-label-connector highcharts-color-0" stroke="#6a329f" stroke-width="1" d="M 358.7186425083988 17.862543280362694 C 353.7186425083988 17.862543280362694 349.713265697185 35.411245699635515 348.37814009344714 41.26081317272646 L 347.04301448970926 47.1103806458174"></path><path fill="none" class="highcharts-data-label-connector highcharts-color-1" stroke="#c90076" stroke-width="1" d="M 481.28351577820774 122.20354115098891 C 476.28351577820774 122.20354115098891 459.59901414597937 128.95834723881762 454.03751360190324 131.20994926809388 L 448.4760130578271 133.46155129737014"></path><path fill="none" class="highcharts-data-label-connector highcharts-color-2" stroke="#d5a6bd" stroke-width="1" d="M 400.4816625019053 341.76827930890204 C 395.4816625019053 341.76827930890204 387.1559732775703 325.80949179418803 384.3807435361253 320.48989595595003 L 381.6055137946803 315.17030011771203"></path><path fill="none" class="highcharts-data-label-connector highcharts-color-3" stroke="#7abfff" stroke-width="1" d="M 136.8040343468395 204.2080065079366 C 141.8040343468395 204.2080065079366 159.72085837992506 202.47959204159835 165.69313305762026 201.90345388615225 L 171.66540773531545 201.32731573070615"></path><path fill="none" class="highcharts-data-label-connector highcharts-color-4" stroke="#16537e" stroke-width="1" d="M 271.2813574916012 17.862543280362694 C 276.2813574916012 17.862543280362694 280.2867343028149 35.411245699635515 281.6218599065528 41.26081317272646 L 282.9569855102907 47.1103806458174"></path><g class="highcharts-label highcharts-data-label highcharts-data-label-color-0" data-z-index="1" style="cursor:pointer;" transform="translate(364,8)"><text x="5" data-z-index="1" y="16" style="color:black;font-size:11px;font-weight:bold;fill:black;"><tspan style="font-weight:bold;">больше 20 млн. руб</tspan>: 7.1 %</text></g><g class="highcharts-label highcharts-data-label highcharts-data-label-color-1" data-z-index="1" style="cursor:pointer;" transform="translate(486,112)"><text x="5" data-z-index="1" y="16" style="color:black;font-size:11px;font-weight:bold;fill:black;"><tspan style="font-weight:bold;">10-20 млн. руб</tspan>: 23.5 %</text></g><g class="highcharts-label highcharts-data-label highcharts-data-label-color-2" data-z-index="1" style="cursor:pointer;" transform="translate(405,332)"><text x="5" data-z-index="1" y="16" style="color:black;font-size:11px;font-weight:bold;fill:black;"><tspan style="font-weight:bold;">3-10 млн. руб</tspan>: 23.5 %</text></g><g class="highcharts-label highcharts-data-label highcharts-data-label-color-3" data-z-index="1" style="cursor:pointer;" transform="translate(-10,194)"><text x="5" data-z-index="1" y="16" style="color:black;font-size:11px;font-weight:bold;fill:black;"><tspan style="font-weight:bold;">300 тыс - 3 млн. руб</tspan>: 38.8 %</text></g><g class="highcharts-label highcharts-data-label highcharts-data-label-color-4" data-z-index="1" style="cursor:pointer;" transform="translate(117,8)"><text x="5" data-z-index="1" y="16" style="color:black;font-size:11px;font-weight:bold;fill:black;"><tspan style="font-weight:bold;">меньше 300 тыс. руб</tspan>: 7.1 %</text></g></g><g class="highcharts-legend" data-z-index="7"><rect fill="none" class="highcharts-legend-box" rx="0" ry="0" x="0" y="0" width="8" height="8" visibility="hidden"></rect><g data-z-index="1"><g></g></g></g><text x="640" class="highcharts-credits" text-anchor="end" data-z-index="8" style="cursor:pointer;color:#999999;font-size:9px;fill:#999999;" y="395">Highcharts.com</text></svg>