<?xml version="1.0" standalone="no"?><!DOCTYPE svg PUBLIC "-//W3C//DTD SVG 1.1//EN" "http://www.w3.org/Graphics/SVG/1.1/DTD/svg11.dtd"><svg xmlns:xlink="http://www.w3.org/1999/xlink" version="1.1" class="highcharts-root" style="font-family:Roboto;font-size:12px;" xmlns="http://www.w3.org/2000/svg" width="650" height="400" viewBox="0 0 650 400"><desc>Created with Highcharts 9.1.0</desc><defs><clipPath id="highcharts-9g587sh-48-"><rect x="0" y="0" width="630" height="375" fill="none"></rect></clipPath></defs><rect fill="#ffffff" class="highcharts-background" x="0" y="0" width="650" height="400" rx="0" ry="0"></rect><rect fill="none" class="highcharts-plot-background" x="10" y="10" width="630" height="375"></rect><g class="highcharts-pane-group" data-z-index="0"><path fill="rgb(237, 238, 240)" d="M 325 19 A 178.5 178.5 0 1 1 324.8215000297499 19.000089249992556 M 324.85975002337494 57.25007012499415 A 140.25 140.25 0 1 0 325 57.25" class="highcharts-pane "></path></g><g class="highcharts-grid highcharts-yaxis-grid highcharts-radial-axis-grid" data-z-index="1"></g><rect fill="none" class="highcharts-plot-border" data-z-index="1" x="10" y="10" width="630" height="375"></rect><g class="highcharts-axis highcharts-yaxis highcharts-radial-axis" data-z-index="2"><path fill="none" class="highcharts-axis-line" data-z-index="7" d="M 325 38.125 A 159.375 159.375 0 1 1 324.8406250265624 38.125079687493354 M 325 197.5 A 0 0 0 1 0 325 197.5"></path></g><g class="highcharts-data-labels highcharts-series-0 highcharts-solidgauge-series" data-z-index="2" opacity="1" transform="translate(10,10) scale(1 1)"><g class="highcharts-label highcharts-data-label highcharts-data-label-color-0" data-z-index="1" style="cursor:pointer;" transform="translate(299,176)"><text x="5" data-z-index="1" y="16" style="color:black;font-size:11px;font-weight:bold;fill:black;"><tspan class="highcharts-text-outline" fill="#FFFFFF" stroke="#FFFFFF" stroke-width="2px" stroke-linejoin="round" style="">0.93<tspan x="5" y="16">​</tspan></tspan>0.93</text></g></g><g class="highcharts-series-group" data-z-index="3"><g class="highcharts-series highcharts-series-0 highcharts-solidgauge-series" data-z-index="0.1" opacity="1" transform="translate(10,10) scale(1 1)" clip-path="url(#highcharts-9g587sh-48-)"><path fill="#d5a6bd" d="M 315 9.5 A 178.5 178.5 0 1 1 238.8369228544866 26.564453481500635 A 19.125 19.125 0 1 1 255.1575822428109 61.157784878321934 A 140.25 140.25 0 1 0 315 47.75 A 19.125 19.125 0 1 1 315 9.5" sweep-flag="0" stroke-linecap="round" stroke-linejoin="round" class="highcharts-point highcharts-color-0"></path></g><g class="highcharts-markers highcharts-series-0 highcharts-solidgauge-series" data-z-index="0.1" opacity="1" transform="translate(10,10) scale(1 1)" clip-path="none"></g></g><text x="325" text-anchor="middle" class="highcharts-title" data-z-index="4" style="color:#333333;font-size:18px;fill:#333333;" y="24"></text><text x="325" text-anchor="middle" class="highcharts-subtitle" data-z-index="4" style="color:#666666;fill:#666666;" y="24"></text><text x="10" text-anchor="start" class="highcharts-caption" data-z-index="4" style="color:#666666;fill:#666666;" y="397"></text><g class="highcharts-legend" data-z-index="7"><rect fill="none" class="highcharts-legend-box" rx="0" ry="0" x="0" y="0" width="8" height="8" visibility="hidden"></rect><g data-z-index="1"><g></g></g></g><g class="highcharts-axis-labels highcharts-yaxis-labels highcharts-radial-axis-labels" data-z-index="7"></g><text x="640" class="highcharts-credits" text-anchor="end" data-z-index="8" style="cursor:pointer;color:#999999;font-size:9px;fill:#999999;" y="395">Highcharts.com</text></svg>