<?xml version="1.0" standalone="no"?><!DOCTYPE svg PUBLIC "-//W3C//DTD SVG 1.1//EN" "http://www.w3.org/Graphics/SVG/1.1/DTD/svg11.dtd"><svg xmlns:xlink="http://www.w3.org/1999/xlink" version="1.1" class="highcharts-root" style="font-family:Roboto;font-size:12px;" xmlns="http://www.w3.org/2000/svg" width="650" height="400" viewBox="0 0 650 400"><desc>Created with Highcharts 9.1.0</desc><defs><clipPath id="highcharts-8c2esp2-223-"><rect x="0" y="0" width="630" height="375" fill="none"></rect></clipPath></defs><rect fill="#ffffff" class="highcharts-background" x="0" y="0" width="650" height="400" rx="0" ry="0"></rect><rect fill="none" class="highcharts-plot-background" x="10" y="10" width="630" height="375"></rect><g class="highcharts-pane-group" data-z-index="0"></g><rect fill="none" class="highcharts-plot-border" data-z-index="1" x="10" y="10" width="630" height="375"></rect><g class="highcharts-series-group" data-z-index="3"><g class="highcharts-series highcharts-series-0 highcharts-pie-series" data-z-index="0.1" opacity="1" transform="translate(10,10) scale(1 1)"><path fill="#d5a6bd" d="M 314.9638480063441 10.000003681596212 A 177.5 177.5 0 0 1 491.6656057924912 170.30948721032107 L 403.3328028962456 178.90474360516055 A 88.75 88.75 0 0 0 314.981924003172 98.7500018407981 Z" transform="translate(0,0)" stroke="#ffffff" stroke-width="1" opacity="1" stroke-linejoin="round" class="highcharts-point highcharts-color-0"></path><path fill="#6a329f" d="M 491.6827079696202 170.48616138192497 A 177.5 177.5 0 0 1 349.18393230053334 361.6772337949841 L 332.09196615026667 274.58861689749205 A 88.75 88.75 0 0 0 403.3413539848101 178.9930806909625 Z" transform="translate(0,0)" stroke="#ffffff" stroke-width="1" opacity="1" stroke-linejoin="round" class="highcharts-point highcharts-color-1"></path><path fill="#7abfff" d="M 349.0097380038032 361.7113306329777 A 177.5 177.5 0 0 1 176.13740698470818 76.94037689522713 L 245.56870349235408 132.22018844761357 A 88.75 88.75 0 0 0 332.00486900190157 274.60566531648885 Z" transform="translate(0,0)" stroke="#ffffff" stroke-width="1" opacity="1" stroke-linejoin="round" class="highcharts-point highcharts-color-2"></path><path fill="#c90076" d="M 176.24803602067706 76.80156960516256 A 177.5 177.5 0 0 1 314.7534560609923 10.000171222375144 L 314.87672803049617 98.75008561118757 A 88.75 88.75 0 0 0 245.62401801033855 132.15078480258128 Z" transform="translate(0,0)" stroke="#ffffff" stroke-width="1" opacity="1" stroke-linejoin="round" class="highcharts-point highcharts-color-3"></path></g><g class="highcharts-markers highcharts-series-0 highcharts-pie-series" data-z-index="0.1" opacity="1" transform="translate(10,10) scale(1 1)"></g></g><text x="325" text-anchor="middle" class="highcharts-title" data-z-index="4" style="color:#333333;font-size:18px;fill:#333333;" y="24"></text><text x="325" text-anchor="middle" class="highcharts-subtitle" data-z-index="4" style="color:#666666;fill:#666666;" y="24"></text><text x="10" text-anchor="start" class="highcharts-caption" data-z-index="4" style="color:#666666;fill:#666666;" y="397"></text><g class="highcharts-data-labels highcharts-series-0 highcharts-pie-series" data-z-index="6" opacity="1" transform="translate(10,10) scale(1 1)"><path fill="none" class="highcharts-data-label-connector highcharts-color-0" stroke="#d5a6bd" stroke-width="1" d="M 459.5024347292233 33.89231560687203 C 454.5024347292233 33.89231560687203 442.40101870451963 47.217319554227714 438.3672133629517 51.658987536679604 L 434.3334080213838 56.10065551913149"></path><path fill="none" class="highcharts-data-label-connector highcharts-color-1" stroke="#6a329f" stroke-width="1" d="M 486.29332653760093 311.6079350769274 C 481.29332653760093 311.6079350769274 466.86788134397773 300.8419455280855 462.05939961277 297.2532823451382 L 457.25091788156226 293.6646191621909"></path><path fill="none" class="highcharts-data-label-connector highcharts-color-2" stroke="#7abfff" stroke-width="1" d="M 132.5578766763907 295.06645792443396 C 137.5578766763907 295.06645792443396 152.95044641048688 285.73539169484445 158.08130298851896 282.6250362849813 L 163.21215956655104 279.5146808751182"></path><path fill="none" class="highcharts-data-label-connector highcharts-color-3" stroke="#c90076" stroke-width="1" d="M 219.96912413310665 0.5489599102480405 C 224.96912413310665 0.5489599102480405 232.77903143722273 16.766399532491583 235.38233387192807 22.172212739906097 L 237.9856363066334 27.57802594732061"></path><g class="highcharts-label highcharts-data-label highcharts-data-label-color-0" data-z-index="1" style="cursor:pointer;" transform="translate(465,24)"><text x="5" data-z-index="1" y="16" style="color:black;font-size:11px;font-weight:bold;fill:black;"><tspan style="font-weight:bold;">больше 50 %</tspan>: 23.5 %</text></g><g class="highcharts-label highcharts-data-label highcharts-data-label-color-1" data-z-index="1" style="cursor:pointer;" transform="translate(491,302)"><text x="5" data-z-index="1" y="16" style="color:black;font-size:11px;font-weight:bold;fill:black;"><tspan style="font-weight:bold;">20-50 %</tspan>: 23.5 %</text></g><g class="highcharts-label highcharts-data-label highcharts-data-label-color-2" data-z-index="1" style="cursor:pointer;" transform="translate(47,285)"><text x="5" data-z-index="1" y="16" style="color:black;font-size:11px;font-weight:bold;fill:black;"><tspan style="font-weight:bold;">5-20 %</tspan>: 38.8 %</text></g><g class="highcharts-label highcharts-data-label highcharts-data-label-color-3" data-z-index="1" style="cursor:pointer;" transform="translate(109,-9)"><text x="5" data-z-index="1" y="16" style="color:black;font-size:11px;font-weight:bold;fill:black;"><tspan style="font-weight:bold;">меньше 5%</tspan>: 14.3 %</text></g></g><g class="highcharts-legend" data-z-index="7"><rect fill="none" class="highcharts-legend-box" rx="0" ry="0" x="0" y="0" width="8" height="8" visibility="hidden"></rect><g data-z-index="1"><g></g></g></g><text x="640" class="highcharts-credits" text-anchor="end" data-z-index="8" style="cursor:pointer;color:#999999;font-size:9px;fill:#999999;" y="395">Highcharts.com</text></svg>