<?xml version="1.0" standalone="no"?><!DOCTYPE svg PUBLIC "-//W3C//DTD SVG 1.1//EN" "http://www.w3.org/Graphics/SVG/1.1/DTD/svg11.dtd"><svg xmlns:xlink="http://www.w3.org/1999/xlink" version="1.1" class="highcharts-root" style="font-family:Roboto;font-size:12px;" xmlns="http://www.w3.org/2000/svg" width="700" height="700" viewBox="0 0 700 700"><desc>Created with Highcharts 9.1.0</desc><defs><clipPath id="highcharts-5poyspq-407-"><rect x="0" y="0" width="628" height="616" fill="none"></rect></clipPath></defs><rect fill="#ffffff" class="highcharts-background" x="0" y="0" width="700" height="700" rx="0" ry="0"></rect><rect fill="none" class="highcharts-plot-background" x="62" y="10" width="628" height="616"></rect><g class="highcharts-pane-group" data-z-index="0"></g><g class="highcharts-grid highcharts-xaxis-grid" data-z-index="1"><path fill="none" stroke-dasharray="none" data-z-index="1" class="highcharts-grid-line" d="M 187.5 10 L 187.5 626" opacity="1"></path><path fill="none" stroke-dasharray="none" data-z-index="1" class="highcharts-grid-line" d="M 312.5 10 L 312.5 626" opacity="1"></path><path fill="none" stroke-dasharray="none" data-z-index="1" class="highcharts-grid-line" d="M 438.5 10 L 438.5 626" opacity="1"></path><path fill="none" stroke-dasharray="none" data-z-index="1" class="highcharts-grid-line" d="M 563.5 10 L 563.5 626" opacity="1"></path><path fill="none" stroke-dasharray="none" data-z-index="1" class="highcharts-grid-line" d="M 689.5 10 L 689.5 626" opacity="1"></path><path fill="none" stroke-dasharray="none" data-z-index="1" class="highcharts-grid-line" d="M 61.5 10 L 61.5 626" opacity="1"></path></g><g class="highcharts-grid highcharts-yaxis-grid" data-z-index="1"><path fill="none" stroke="#e6e6e6" stroke-width="1" stroke-dasharray="none" data-z-index="1" class="highcharts-grid-line" d="M 62 626.5 L 690 626.5" opacity="1"></path><path fill="none" stroke="#e6e6e6" stroke-width="1" stroke-dasharray="none" data-z-index="1" class="highcharts-grid-line" d="M 62 564.5 L 690 564.5" opacity="1"></path><path fill="none" stroke="#e6e6e6" stroke-width="1" stroke-dasharray="none" data-z-index="1" class="highcharts-grid-line" d="M 62 503.5 L 690 503.5" opacity="1"></path><path fill="none" stroke="#e6e6e6" stroke-width="1" stroke-dasharray="none" data-z-index="1" class="highcharts-grid-line" d="M 62 441.5 L 690 441.5" opacity="1"></path><path fill="none" stroke="#e6e6e6" stroke-width="1" stroke-dasharray="none" data-z-index="1" class="highcharts-grid-line" d="M 62 380.5 L 690 380.5" opacity="1"></path><path fill="none" stroke="#e6e6e6" stroke-width="1" stroke-dasharray="none" data-z-index="1" class="highcharts-grid-line" d="M 62 318.5 L 690 318.5" opacity="1"></path><path fill="none" stroke="#e6e6e6" stroke-width="1" stroke-dasharray="none" data-z-index="1" class="highcharts-grid-line" d="M 62 256.5 L 690 256.5" opacity="1"></path><path fill="none" stroke="#e6e6e6" stroke-width="1" stroke-dasharray="none" data-z-index="1" class="highcharts-grid-line" d="M 62 195.5 L 690 195.5" opacity="1"></path><path fill="none" stroke="#e6e6e6" stroke-width="1" stroke-dasharray="none" data-z-index="1" class="highcharts-grid-line" d="M 62 133.5 L 690 133.5" opacity="1"></path><path fill="none" stroke="#e6e6e6" stroke-width="1" stroke-dasharray="none" data-z-index="1" class="highcharts-grid-line" d="M 62 72.5 L 690 72.5" opacity="1"></path><path fill="none" stroke="#e6e6e6" stroke-width="1" stroke-dasharray="none" data-z-index="1" class="highcharts-grid-line" d="M 62 9.5 L 690 9.5" opacity="1"></path></g><rect fill="none" class="highcharts-plot-border" data-z-index="1" x="62" y="10" width="628" height="616"></rect><g class="highcharts-axis highcharts-xaxis" data-z-index="2"><path fill="none" class="highcharts-axis-line" stroke="#ccd6eb" stroke-width="1" data-z-index="7" d="M 62 626.5 L 690 626.5"></path></g><g class="highcharts-axis highcharts-yaxis" data-z-index="2"><text x="24.643750190734863" data-z-index="7" text-anchor="middle" transform="translate(0,0) rotate(270 24.643750190734863 318)" class="highcharts-axis-title" style="color:#666666;fill:#666666;" y="318">Values</text><path fill="none" class="highcharts-axis-line" data-z-index="7" d="M 62 10 L 62 626"></path></g><g class="highcharts-series-group" data-z-index="3"><g class="highcharts-series highcharts-series-0 highcharts-areaspline-series" data-z-index="0.1" opacity="1" transform="translate(62,10) scale(1 1)" clip-path="url(#highcharts-5poyspq-407-)"><path fill="rgb(213,166,189)" fill-opacity="0.4" d="M 62.8 468.15999999999997 C 62.8 468.15999999999997 138.16000000000003 542.08 188.4 542.08 C 238.64000000000001 542.08 263.76 160.15999999999997 314 160.15999999999997 C 364.24 160.15999999999997 389.36 394.24 439.6 394.24 C 489.84000000000003 394.24 565.2 86.24000000000001 565.2 86.24000000000001 L 565.2 616 C 565.2 616 489.84000000000003 616 439.6 616 C 389.36 616 364.24 616 314 616 C 263.76 616 238.64000000000001 616 188.4 616 C 138.16000000000003 616 62.8 616 62.8 616 Z" class="highcharts-area" data-z-index="0"></path><path fill="none" d="M 62.8 468.15999999999997 C 62.8 468.15999999999997 138.16000000000003 542.08 188.4 542.08 C 238.64000000000001 542.08 263.76 160.15999999999997 314 160.15999999999997 C 364.24 160.15999999999997 389.36 394.24 439.6 394.24 C 489.84000000000003 394.24 565.2 86.24000000000001 565.2 86.24000000000001" class="highcharts-graph" data-z-index="1" stroke="#d5a6bd" stroke-width="2" stroke-linejoin="round" stroke-linecap="round"></path></g><g class="highcharts-markers highcharts-series-0 highcharts-areaspline-series" data-z-index="0.1" opacity="1" transform="translate(62,10) scale(1 1)" clip-path="none"><path fill="#d5a6bd" d="M 62 472 A 4 4 0 1 1 62.00399999933334 471.9999980000002 Z" opacity="1" class="highcharts-point"></path><path fill="#d5a6bd" d="M 188 546 A 4 4 0 1 1 188.00399999933333 545.9999980000001 Z" opacity="1" class="highcharts-point"></path><path fill="#d5a6bd" d="M 314 164 A 4 4 0 1 1 314.00399999933336 163.99999800000018 Z" opacity="1" class="highcharts-point"></path><path fill="#d5a6bd" d="M 439 398 A 4 4 0 1 1 439.00399999933336 397.9999980000002 Z" opacity="1" class="highcharts-point"></path><path fill="#d5a6bd" d="M 565 90 A 4 4 0 1 1 565.0039999993334 89.99999800000016 Z" opacity="1" class="highcharts-point"></path></g><g class="highcharts-series highcharts-series-1 highcharts-areaspline-series" data-z-index="0.1" opacity="1" transform="translate(62,10) scale(1 1)" clip-path="url(#highcharts-5poyspq-407-)"><path fill="rgb(106,50,159)" fill-opacity="0.4" d="M 62.8 468.15999999999997 C 62.8 468.15999999999997 138.16000000000003 517.44 188.4 517.44 C 238.64000000000001 517.44 263.76 221.76 314 221.76 C 364.24 221.76 389.36 517.44 439.6 517.44 C 489.84000000000003 517.44 565.2 123.19999999999999 565.2 123.19999999999999 L 565.2 616 C 565.2 616 489.84000000000003 616 439.6 616 C 389.36 616 364.24 616 314 616 C 263.76 616 238.64000000000001 616 188.4 616 C 138.16000000000003 616 62.8 616 62.8 616 Z" class="highcharts-area" data-z-index="0"></path><path fill="none" d="M 62.8 468.15999999999997 C 62.8 468.15999999999997 138.16000000000003 517.44 188.4 517.44 C 238.64000000000001 517.44 263.76 221.76 314 221.76 C 364.24 221.76 389.36 517.44 439.6 517.44 C 489.84000000000003 517.44 565.2 123.19999999999999 565.2 123.19999999999999" class="highcharts-graph" data-z-index="1" stroke="#6a329f" stroke-width="2" stroke-linejoin="round" stroke-linecap="round"></path></g><g class="highcharts-markers highcharts-series-1 highcharts-areaspline-series" data-z-index="0.1" opacity="1" transform="translate(62,10) scale(1 1)" clip-path="none"><path fill="#6a329f" d="M 62 464 L 66 468 L 62 472 L 58 468 Z" opacity="1" class="highcharts-point"></path><path fill="#6a329f" d="M 188 513 L 192 517 L 188 521 L 184 517 Z" opacity="1" class="highcharts-point"></path><path fill="#6a329f" d="M 314 218 L 318 222 L 314 226 L 310 222 Z" opacity="1" class="highcharts-point"></path><path fill="#6a329f" d="M 439 513 L 443 517 L 439 521 L 435 517 Z" opacity="1" class="highcharts-point"></path><path fill="#6a329f" d="M 565 119 L 569 123 L 565 127 L 561 123 Z" opacity="1" class="highcharts-point"></path></g></g><text x="350" text-anchor="middle" class="highcharts-title" data-z-index="4" style="color:#333333;font-size:18px;fill:#333333;" y="24"></text><text x="350" text-anchor="middle" class="highcharts-subtitle" data-z-index="4" style="color:#666666;fill:#666666;" y="24"></text><text x="10" text-anchor="start" class="highcharts-caption" data-z-index="4" style="color:#666666;fill:#666666;" y="697"></text><g class="highcharts-data-labels highcharts-series-0 highcharts-areaspline-series" data-z-index="6" opacity="1" transform="translate(62,10) scale(1 1)"><g class="highcharts-label highcharts-data-label highcharts-data-label-color-undefined" data-z-index="1" style="cursor:pointer;" transform="translate(52,445)"><text x="5" data-z-index="1" y="16" style="color:black;font-size:11px;font-weight:bold;fill:black;">12</text></g><g class="highcharts-label highcharts-data-label highcharts-data-label-color-undefined" data-z-index="1" style="cursor:pointer;" transform="translate(180,519)"><text x="5" data-z-index="1" y="16" style="color:black;font-size:11px;font-weight:bold;fill:black;">6</text></g><g class="highcharts-label highcharts-data-label highcharts-data-label-color-undefined" data-z-index="1" style="cursor:pointer;" transform="translate(303,137)"><text x="5" data-z-index="1" y="16" style="color:black;font-size:11px;font-weight:bold;fill:black;">37</text></g><g class="highcharts-label highcharts-data-label highcharts-data-label-color-undefined" data-z-index="1" style="cursor:pointer;" transform="translate(428,371)"><text x="5" data-z-index="1" y="16" style="color:black;font-size:11px;font-weight:bold;fill:black;">18</text></g><g class="highcharts-label highcharts-data-label highcharts-data-label-color-undefined" data-z-index="1" style="cursor:pointer;" transform="translate(554,63)"><text x="5" data-z-index="1" y="16" style="color:black;font-size:11px;font-weight:bold;fill:black;">43</text></g></g><g class="highcharts-data-labels highcharts-series-1 highcharts-areaspline-series" data-z-index="6" opacity="1" transform="translate(62,10) scale(1 1)"><g class="highcharts-label highcharts-data-label highcharts-data-label-color-undefined highcharts-data-label-hidden" data-z-index="1" style="cursor:pointer;pointer-events:none;" transform="translate(52,445)" opacity="0"><text x="5" data-z-index="1" y="16" style="color:black;font-size:11px;font-weight:bold;fill:black;">12</text></g><g class="highcharts-label highcharts-data-label highcharts-data-label-color-undefined" data-z-index="1" style="cursor:pointer;" transform="translate(180,494)"><text x="5" data-z-index="1" y="16" style="color:black;font-size:11px;font-weight:bold;fill:black;">8</text></g><g class="highcharts-label highcharts-data-label highcharts-data-label-color-undefined" data-z-index="1" style="cursor:pointer;" transform="translate(303,199)"><text x="5" data-z-index="1" y="16" style="color:black;font-size:11px;font-weight:bold;fill:black;">32</text></g><g class="highcharts-label highcharts-data-label highcharts-data-label-color-undefined" data-z-index="1" style="cursor:pointer;" transform="translate(431,494)"><text x="5" data-z-index="1" y="16" style="color:black;font-size:11px;font-weight:bold;fill:black;">8</text></g><g class="highcharts-label highcharts-data-label highcharts-data-label-color-undefined" data-z-index="1" style="cursor:pointer;" transform="translate(554,100)"><text x="5" data-z-index="1" y="16" style="color:black;font-size:11px;font-weight:bold;fill:black;">40</text></g></g><g class="highcharts-legend" data-z-index="7" transform="translate(247,659)"><rect fill="none" class="highcharts-legend-box" rx="0" ry="0" x="0" y="0" width="206" height="26" visibility="visible"></rect><g data-z-index="1"><g><g class="highcharts-legend-item highcharts-areaspline-series highcharts-color-undefined highcharts-series-1" data-z-index="1" transform="translate(8,3)"><text x="21" style="color:#333333;cursor:pointer;font-size:12px;font-weight:bold;fill:#333333;" text-anchor="start" data-z-index="2" y="15">инвесторы</text><rect x="2" y="4" width="12" height="12" fill="#6a329f" rx="6" ry="6" class="highcharts-point" data-z-index="3"></rect></g><g class="highcharts-legend-item highcharts-areaspline-series highcharts-color-undefined highcharts-series-0" data-z-index="1" transform="translate(110.75625228881836,3)"><text x="21" y="15" style="color:#333333;cursor:pointer;font-size:12px;font-weight:bold;fill:#333333;" text-anchor="start" data-z-index="2">стартаперы</text><rect x="2" y="4" width="12" height="12" fill="#d5a6bd" rx="6" ry="6" class="highcharts-point" data-z-index="3"></rect></g></g></g></g><g class="highcharts-axis-labels highcharts-xaxis-labels" data-z-index="7"><text x="124.8" style="color:#666666;cursor:default;font-size:11px;fill:#666666;" text-anchor="middle" transform="translate(0,0)" y="645" opacity="1">FoodTech</text><text x="250.39999999999998" style="color:#666666;cursor:default;font-size:11px;fill:#666666;" text-anchor="middle" transform="translate(0,0)" y="645" opacity="1">Энергетика</text><text x="376" style="color:#666666;cursor:default;font-size:11px;fill:#666666;" text-anchor="middle" transform="translate(0,0)" y="645" opacity="1">Услуги</text><text x="501.59999999999997" style="color:#666666;cursor:default;font-size:11px;fill:#666666;" text-anchor="middle" transform="translate(0,0)" y="645" opacity="1">EduTech</text><text x="627.2" style="color:#666666;cursor:default;font-size:11px;fill:#666666;" text-anchor="middle" transform="translate(0,0)" y="645" opacity="1">IT</text></g><g class="highcharts-axis-labels highcharts-yaxis-labels" data-z-index="7"><text x="47" style="color:#666666;cursor:default;font-size:11px;fill:#666666;" text-anchor="end" transform="translate(0,0)" y="630" opacity="1">0</text><text x="47" style="color:#666666;cursor:default;font-size:11px;fill:#666666;" text-anchor="end" transform="translate(0,0)" y="569" opacity="1">5</text><text x="47" style="color:#666666;cursor:default;font-size:11px;fill:#666666;" text-anchor="end" transform="translate(0,0)" y="507" opacity="1">10</text><text x="47" style="color:#666666;cursor:default;font-size:11px;fill:#666666;" text-anchor="end" transform="translate(0,0)" y="446" opacity="1">15</text><text x="47" style="color:#666666;cursor:default;font-size:11px;fill:#666666;" text-anchor="end" transform="translate(0,0)" y="384" opacity="1">20</text><text x="47" style="color:#666666;cursor:default;font-size:11px;fill:#666666;" text-anchor="end" transform="translate(0,0)" y="322" opacity="1">25</text><text x="47" style="color:#666666;cursor:default;font-size:11px;fill:#666666;" text-anchor="end" transform="translate(0,0)" y="261" opacity="1">30</text><text x="47" style="color:#666666;cursor:default;font-size:11px;fill:#666666;" text-anchor="end" transform="translate(0,0)" y="199" opacity="1">35</text><text x="47" style="color:#666666;cursor:default;font-size:11px;fill:#666666;" text-anchor="end" transform="translate(0,0)" y="138" opacity="1">40</text><text x="47" style="color:#666666;cursor:default;font-size:11px;fill:#666666;" text-anchor="end" transform="translate(0,0)" y="76" opacity="1">45</text><text x="47" style="color:#666666;cursor:default;font-size:11px;fill:#666666;" text-anchor="end" transform="translate(0,0)" y="14" opacity="1">50</text></g></svg>