<?xml version="1.0" standalone="no"?><!DOCTYPE svg PUBLIC "-//W3C//DTD SVG 1.1//EN" "http://www.w3.org/Graphics/SVG/1.1/DTD/svg11.dtd"><svg xmlns:xlink="http://www.w3.org/1999/xlink" version="1.1" class="highcharts-root" style="font-family:Roboto;font-size:12px;" xmlns="http://www.w3.org/2000/svg" width="650" height="400" viewBox="0 0 650 400"><desc>Created with Highcharts 9.1.0</desc><defs><clipPath id="highcharts-6tli4cb-239-"><rect x="0" y="0" width="630" height="375" fill="none"></rect></clipPath></defs><rect fill="#ffffff" class="highcharts-background" x="0" y="0" width="650" height="400" rx="0" ry="0"></rect><rect fill="none" class="highcharts-plot-background" x="10" y="10" width="630" height="375"></rect><g class="highcharts-pane-group" data-z-index="0"></g><rect fill="none" class="highcharts-plot-border" data-z-index="1" x="10" y="10" width="630" height="375"></rect><g class="highcharts-series-group" data-z-index="3"><g class="highcharts-series highcharts-series-0 highcharts-pie-series" data-z-index="0.1" opacity="1" transform="translate(10,10) scale(1 1)"><path fill="#6a329f" d="M 314.9706710586679 43.50000298675974 A 144 144 0 0 1 423.9220269578129 281.69125247814407 L 315 187.5 A 0 0 0 0 0 315 187.5 Z" transform="translate(0,0)" stroke="#ffffff" stroke-width="1" opacity="1" stroke-linejoin="round" class="highcharts-point highcharts-color-0"></path><path fill="#c90076" d="M 423.8277812600244 281.8001273913259 A 144 144 0 0 1 274.62338525636073 325.72347478573863 L 315 187.5 A 0 0 0 0 0 315 187.5 Z" transform="translate(0,0)" stroke="#ffffff" stroke-width="1" opacity="1" stroke-linejoin="round" class="highcharts-point highcharts-color-1"></path><path fill="#d5a6bd" d="M 274.48518199291794 325.68302906599286 A 144 144 0 0 1 172.48200814250603 208.1063581670145 L 315 187.5 A 0 0 0 0 0 315 187.5 Z" transform="translate(0,0)" stroke="#ffffff" stroke-width="1" opacity="1" stroke-linejoin="round" class="highcharts-point highcharts-color-2"></path><path fill="#7abfff" d="M 172.46147304676342 207.96382989573178 A 144 144 0 0 1 183.9537367082996 127.81016102147423 L 315 187.5 A 0 0 0 0 0 315 187.5 Z" transform="translate(0,0)" stroke="#ffffff" stroke-width="1" opacity="1" stroke-linejoin="round" class="highcharts-point highcharts-color-3"></path><path fill="#16537e" d="M 184.01349206045597 127.67914462494059 A 144 144 0 0 1 314.7999868889177 43.5001389071663 L 315 187.5 A 0 0 0 0 0 315 187.5 Z" transform="translate(0,0)" stroke="#ffffff" stroke-width="1" opacity="1" stroke-linejoin="round" class="highcharts-point highcharts-color-4"></path></g><g class="highcharts-markers highcharts-series-0 highcharts-pie-series" data-z-index="0.1" opacity="1" transform="translate(10,10) scale(1 1)"></g></g><text x="325" text-anchor="middle" class="highcharts-title" data-z-index="4" style="color:#333333;font-size:18px;fill:#333333;" y="24"></text><text x="325" text-anchor="middle" class="highcharts-subtitle" data-z-index="4" style="color:#666666;fill:#666666;" y="24"></text><text x="10" text-anchor="start" class="highcharts-caption" data-z-index="4" style="color:#666666;fill:#666666;" y="397"></text><g class="highcharts-data-labels highcharts-series-0 highcharts-pie-series" data-z-index="6" opacity="1" transform="translate(10,10) scale(1 1)"><path fill="none" class="highcharts-data-label-connector highcharts-color-0" stroke="#6a329f" stroke-width="1" d="M 478.2759671916862 115.21778773767177 C 473.2759671916862 115.21778773767177 456.90259127530487 122.69525797170573 451.4447993031778 125.18774804971704 L 445.9870073310507 127.68023812772836"></path><path fill="none" class="highcharts-data-label-connector highcharts-color-1" stroke="#c90076" stroke-width="1" d="M 369.0214648904089 354.4517774089225 C 364.0214648904089 354.4517774089225 358.9502788672631 337.18090388386156 357.2598835262145 331.4239460421746 L 355.5694881851659 325.6669882004876"></path><path fill="none" class="highcharts-data-label-connector highcharts-color-2" stroke="#d5a6bd" stroke-width="1" d="M 178.49957406235907 301.4457677064796 C 183.49957406235907 301.4457677064796 197.1030664007357 289.6582744954645 201.63756384686127 285.7291100917928 L 206.17206129298683 281.79994568812106"></path><path fill="none" class="highcharts-data-label-connector highcharts-color-3" stroke="#7abfff" stroke-width="1" d="M 137.77106911271773 162.73721814044833 C 142.77106911271773 162.73721814044833 160.5878550665745 165.2988852293675 166.5267837178601 166.1527742590072 L 172.4657123691457 167.0066632886469"></path><path fill="none" class="highcharts-data-label-connector highcharts-color-4" stroke="#16537e" stroke-width="1" d="M 215.92849776272607 41.121885287374454 C 220.92849776272607 41.121885287374454 230.6600324769268 56.26444887833571 233.90387738166038 61.311970075322805 L 237.14772228639396 66.3594912723099"></path><g class="highcharts-label highcharts-data-label highcharts-data-label-color-0" data-z-index="1" style="cursor:pointer;" transform="translate(483,105)"><text x="5" data-z-index="1" y="16" style="color:black;font-size:11px;font-weight:bold;fill:black;"><tspan style="font-weight:bold;">больше 5 млн. руб</tspan>: 36.4 %</text></g><g class="highcharts-label highcharts-data-label highcharts-data-label-color-1" data-z-index="1" style="cursor:pointer;" transform="translate(374,344)"><text x="5" data-z-index="1" y="16" style="color:black;font-size:11px;font-weight:bold;fill:black;"><tspan style="font-weight:bold;">1-5 млн. руб</tspan>: 18.2 %</text></g><g class="highcharts-label highcharts-data-label highcharts-data-label-color-2" data-z-index="1" style="cursor:pointer;" transform="translate(23,291)"><text x="5" data-z-index="1" y="16" style="color:black;font-size:11px;font-weight:bold;fill:black;"><tspan style="font-weight:bold;">500 тыс - 1 млн. руб</tspan>: 18.2 %</text></g><g class="highcharts-label highcharts-data-label highcharts-data-label-color-3" data-z-index="1" style="cursor:pointer;" transform="translate(-10,153)"><text x="5" data-z-index="1" y="16" style="color:black;font-size:11px;font-weight:bold;fill:black;"><tspan style="font-weight:bold;">100 тыс - 300 тыс руб</tspan>: 9.1 %</text></g><g class="highcharts-label highcharts-data-label highcharts-data-label-color-4" data-z-index="1" style="cursor:pointer;" transform="translate(55,31)"><text x="5" data-z-index="1" y="16" style="color:black;font-size:11px;font-weight:bold;fill:black;"><tspan style="font-weight:bold;">меньше 100 тыс. руб</tspan>: 18.2 %</text></g></g><g class="highcharts-legend" data-z-index="7"><rect fill="none" class="highcharts-legend-box" rx="0" ry="0" x="0" y="0" width="8" height="8" visibility="hidden"></rect><g data-z-index="1"><g></g></g></g><text x="640" class="highcharts-credits" text-anchor="end" data-z-index="8" style="cursor:pointer;color:#999999;font-size:9px;fill:#999999;" y="395">Highcharts.com</text></svg>