<?xml version="1.0" standalone="no"?><!DOCTYPE svg PUBLIC "-//W3C//DTD SVG 1.1//EN" "http://www.w3.org/Graphics/SVG/1.1/DTD/svg11.dtd"><svg xmlns:xlink="http://www.w3.org/1999/xlink" version="1.1" class="highcharts-root" style="font-family:Roboto;font-size:12px;" xmlns="http://www.w3.org/2000/svg" width="650" height="400" viewBox="0 0 650 400"><desc>Created with Highcharts 9.1.0</desc><defs><clipPath id="highcharts-wyc6f4a-196-"><rect x="0" y="0" width="630" height="375" fill="none"></rect></clipPath></defs><rect fill="#ffffff" class="highcharts-background" x="0" y="0" width="650" height="400" rx="0" ry="0"></rect><rect fill="none" class="highcharts-plot-background" x="10" y="10" width="630" height="375"></rect><g class="highcharts-pane-group" data-z-index="0"></g><rect fill="none" class="highcharts-plot-border" data-z-index="1" x="10" y="10" width="630" height="375"></rect><g class="highcharts-series-group" data-z-index="3"><g class="highcharts-series highcharts-series-0 highcharts-pie-series" data-z-index="0.1" opacity="1" transform="translate(10,10) scale(1 1)"><path fill="#d5a6bd" d="M 314.9638480063441 10.000003681596212 A 177.5 177.5 0 0 1 381.4636861966701 22.91315843254492 L 348.23184309833505 105.20657921627246 A 88.75 88.75 0 0 0 314.981924003172 98.7500018407981 Z" transform="translate(0,0)" stroke="#ffffff" stroke-width="1" opacity="1" stroke-linejoin="round" class="highcharts-point highcharts-color-0"></path><path fill="#7abfff" d="M 381.6282397789661 22.97970440107821 A 177.5 177.5 0 0 1 281.2677633136286 361.76527539396545 L 298.1338816568143 274.6326376969827 A 88.75 88.75 0 0 0 348.31411988948304 105.2398522005391 Z" transform="translate(0,0)" stroke="#ffffff" stroke-width="1" opacity="1" stroke-linejoin="round" class="highcharts-point highcharts-color-1"></path><path fill="#16537e" d="M 281.0935149333958 361.7314560302707 A 177.5 177.5 0 0 1 138.34461325188826 204.79521127003267 L 226.67230662594415 196.14760563501633 A 88.75 88.75 0 0 0 298.0467574666979 274.61572801513535 Z" transform="translate(0,0)" stroke="#ffffff" stroke-width="1" opacity="1" stroke-linejoin="round" class="highcharts-point highcharts-color-2"></path><path fill="#6a329f" d="M 138.32740637118675 204.61854726512223 A 177.5 177.5 0 0 1 248.27426838415494 23.019220757165016 L 281.6371341920775 105.25961037858251 A 88.75 88.75 0 0 0 226.66370318559336 196.05927363256112 Z" transform="translate(0,0)" stroke="#ffffff" stroke-width="1" opacity="1" stroke-linejoin="round" class="highcharts-point highcharts-color-3"></path><path fill="#c90076" d="M 248.4387824988474 22.95257727705288 A 177.5 177.5 0 0 1 314.7534560609923 10.000171222375144 L 314.87672803049617 98.75008561118757 A 88.75 88.75 0 0 0 281.7193912494237 105.22628863852644 Z" transform="translate(0,0)" stroke="#ffffff" stroke-width="1" opacity="1" stroke-linejoin="round" class="highcharts-point highcharts-color-4"></path></g><g class="highcharts-markers highcharts-series-0 highcharts-pie-series" data-z-index="0.1" opacity="1" transform="translate(10,10) scale(1 1)"></g></g><text x="325" text-anchor="middle" class="highcharts-title" data-z-index="4" style="color:#333333;font-size:18px;fill:#333333;" y="24"></text><text x="325" text-anchor="middle" class="highcharts-subtitle" data-z-index="4" style="color:#666666;fill:#666666;" y="24"></text><text x="10" text-anchor="start" class="highcharts-caption" data-z-index="4" style="color:#666666;fill:#666666;" y="397"></text><g class="highcharts-data-labels highcharts-series-0 highcharts-pie-series" data-z-index="6" opacity="1" transform="translate(10,10) scale(1 1)"><path fill="none" class="highcharts-data-label-connector highcharts-color-0" stroke="#d5a6bd" stroke-width="1" d="M 359.6654154555349 0 C 354.6654154555349 0 351.2245601389101 1.4945397501931303 350.07760836670184 7.383894692139522 L 348.9306565944936 13.273249634085914"></path><path fill="none" class="highcharts-data-label-connector highcharts-color-1" stroke="#7abfff" stroke-width="1" d="M 518.923579505107 246.53947422593922 C 513.923579505107 246.53947422593922 496.66755815044723 241.41797766658067 490.91555103222726 239.71081214679447 L 485.1635439140073 238.00364662700827"></path><path fill="none" class="highcharts-data-label-connector highcharts-color-2" stroke="#16537e" stroke-width="1" d="M 156.39231560687205 327.00243472922324 C 161.39231560687205 327.00243472922324 174.7173195542277 314.9010187045196 179.1589875366796 310.86721336295165 L 183.6006555191315 306.8334080213837"></path><path fill="none" class="highcharts-data-label-connector highcharts-color-3" stroke="#6a329f" stroke-width="1" d="M 132.55787667639072 79.93354207556598 C 137.55787667639072 79.93354207556598 152.95044641048693 89.26460830515545 158.081302988519 92.3749637150186 L 163.2121595665511 95.48531912488174"></path><path fill="none" class="highcharts-data-label-connector highcharts-color-4" stroke="#c90076" stroke-width="1" d="M 270.3345845444654 0 C 275.3345845444654 0 278.77543986109004 1.4945397501931001 279.9223916332983 7.383894692139493 L 281.0693434055065 13.273249634085886"></path><g class="highcharts-label highcharts-data-label highcharts-data-label-color-0" data-z-index="1" style="cursor:pointer;" transform="translate(365,-10)"><text x="5" data-z-index="1" y="16" style="color:black;font-size:11px;font-weight:bold;fill:black;"><tspan style="font-weight:bold;">больше 50%</tspan>: 6.1 %</text></g><g class="highcharts-label highcharts-data-label highcharts-data-label-color-1" data-z-index="1" style="cursor:pointer;" transform="translate(524,237)"><text x="5" data-z-index="1" y="16" style="color:black;font-size:11px;font-weight:bold;fill:black;"><tspan style="font-weight:bold;">15-30%</tspan>: 46.9 %</text></g><g class="highcharts-label highcharts-data-label highcharts-data-label-color-2" data-z-index="1" style="cursor:pointer;" transform="translate(74,317)"><text x="5" data-z-index="1" y="16" style="color:black;font-size:11px;font-weight:bold;fill:black;"><tspan style="font-weight:bold;">5-15%</tspan>: 20.4 %</text></g><g class="highcharts-label highcharts-data-label highcharts-data-label-color-3" data-z-index="1" style="cursor:pointer;" transform="translate(43,70)"><text x="5" data-z-index="1" y="16" style="color:black;font-size:11px;font-weight:bold;fill:black;"><tspan style="font-weight:bold;">30-50%</tspan>: 20.4 %</text></g><g class="highcharts-label highcharts-data-label highcharts-data-label-color-4" data-z-index="1" style="cursor:pointer;" transform="translate(166,-10)"><text x="5" data-z-index="1" y="16" style="color:black;font-size:11px;font-weight:bold;fill:black;"><tspan style="font-weight:bold;">меньше 5%</tspan>: 6.1 %</text></g></g><g class="highcharts-legend" data-z-index="7"><rect fill="none" class="highcharts-legend-box" rx="0" ry="0" x="0" y="0" width="8" height="8" visibility="hidden"></rect><g data-z-index="1"><g></g></g></g><text x="640" class="highcharts-credits" text-anchor="end" data-z-index="8" style="cursor:pointer;color:#999999;font-size:9px;fill:#999999;" y="395">Highcharts.com</text></svg>